<svg xmlns="http://www.w3.org/2000/svg" xmlns:xlink="http://www.w3.org/1999/xlink" id="processonSvg1000" viewBox="11.93332417805891 168.26666514078778 1224.6666666666672 1432.0" width="1224.6666666666672" height="1432.0"><defs id="ProcessOnDefs1001"><marker id="ProcessOnMarker1015" markerUnits="userSpaceOnUse" orient="auto" markerWidth="16.23606797749979" markerHeight="10.550836550532098" viewBox="-1.0 -1.3763819204711736 16.23606797749979 10.550836550532098" refX="-1.0" refY="3.8990363547948754"><path id="ProcessOnPath1016" d="M12.0 3.8990363547948754L0.0 7.798072709589751V0.0Z" stroke="#323232" stroke-width="2.0" fill="#323232" transform="matrix(1.0,0.0,0.0,1.0,0.0,0.0)"/></marker><marker id="ProcessOnMarker1024" markerUnits="userSpaceOnUse" orient="auto" markerWidth="16.23606797749979" markerHeight="10.550836550532098" viewBox="-1.0 -1.3763819204711736 16.23606797749979 10.550836550532098" refX="-1.0" refY="3.8990363547948754"><path id="ProcessOnPath1025" d="M12.0 3.8990363547948754L0.0 7.798072709589751V0.0Z" stroke="#323232" stroke-width="2.0" fill="#323232" transform="matrix(1.0,0.0,0.0,1.0,0.0,0.0)"/></marker><marker id="ProcessOnMarker1035" markerUnits="userSpaceOnUse" orient="auto" markerWidth="16.23606797749979" markerHeight="10.550836550532098" viewBox="-1.0 -1.3763819204711736 16.23606797749979 10.550836550532098" refX="-1.0" refY="3.8990363547948754"><path id="ProcessOnPath1036" d="M12.0 3.8990363547948754L0.0 7.798072709589751V0.0Z" stroke="#323232" stroke-width="2.0" fill="#323232" transform="matrix(1.0,0.0,0.0,1.0,0.0,0.0)"/></marker><marker id="ProcessOnMarker1047" markerUnits="userSpaceOnUse" orient="auto" markerWidth="16.23606797749979" markerHeight="10.550836550532098" viewBox="-1.0 -1.3763819204711736 16.23606797749979 10.550836550532098" refX="-1.0" refY="3.8990363547948754"><path id="ProcessOnPath1048" d="M12.0 3.8990363547948754L0.0 7.798072709589751V0.0Z" stroke="#323232" stroke-width="2.0" fill="#323232" transform="matrix(1.0,0.0,0.0,1.0,0.0,0.0)"/></marker><marker id="ProcessOnMarker1058" markerUnits="userSpaceOnUse" orient="auto" markerWidth="16.23606797749979" markerHeight="10.550836550532098" viewBox="-1.0 -1.3763819204711736 16.23606797749979 10.550836550532098" refX="-1.0" refY="3.8990363547948754"><path id="ProcessOnPath1059" d="M12.0 3.8990363547948754L0.0 7.798072709589751V0.0Z" stroke="#323232" stroke-width="2.0" fill="#323232" transform="matrix(1.0,0.0,0.0,1.0,0.0,0.0)"/></marker><marker id="ProcessOnMarker1069" markerUnits="userSpaceOnUse" orient="auto" markerWidth="16.23606797749979" markerHeight="10.550836550532098" viewBox="-1.0 -1.3763819204711736 16.23606797749979 10.550836550532098" refX="-1.0" refY="3.8990363547948754"><path id="ProcessOnPath1070" d="M12.0 3.8990363547948754L0.0 7.798072709589751V0.0Z" stroke="#323232" stroke-width="2.0" fill="#323232" transform="matrix(1.0,0.0,0.0,1.0,0.0,0.0)"/></marker><marker id="ProcessOnMarker1073" markerUnits="userSpaceOnUse" orient="auto" markerWidth="16.23606797749979" markerHeight="10.550836550532098" viewBox="-1.0 -1.3763819204711736 16.23606797749979 10.550836550532098" refX="-1.0" refY="3.8990363547948754"><path id="ProcessOnPath1074" d="M12.0 3.8990363547948754L0.0 7.798072709589751V0.0Z" stroke="#323232" stroke-width="2.0" fill="#323232" transform="matrix(1.0,0.0,0.0,1.0,0.0,0.0)"/></marker><marker id="ProcessOnMarker1081" markerUnits="userSpaceOnUse" orient="auto" markerWidth="16.23606797749979" markerHeight="10.550836550532098" viewBox="-1.0 -1.3763819204711736 16.23606797749979 10.550836550532098" refX="-1.0" refY="3.8990363547948754"><path id="ProcessOnPath1082" d="M12.0 3.8990363547948754L0.0 7.798072709589751V0.0Z" stroke="#323232" stroke-width="2.0" fill="#323232" transform="matrix(1.0,0.0,0.0,1.0,0.0,0.0)"/></marker><marker id="ProcessOnMarker1092" markerUnits="userSpaceOnUse" orient="auto" markerWidth="16.23606797749979" markerHeight="10.550836550532098" viewBox="-1.0 -1.3763819204711736 16.23606797749979 10.550836550532098" refX="-1.0" refY="3.8990363547948754"><path id="ProcessOnPath1093" d="M12.0 3.8990363547948754L0.0 7.798072709589751V0.0Z" stroke="#323232" stroke-width="2.0" fill="#323232" transform="matrix(1.0,0.0,0.0,1.0,0.0,0.0)"/></marker><marker id="ProcessOnMarker1099" markerUnits="userSpaceOnUse" orient="auto" markerWidth="16.23606797749979" markerHeight="10.550836550532098" viewBox="-1.0 -1.3763819204711736 16.23606797749979 10.550836550532098" refX="-1.0" refY="3.8990363547948754"><path id="ProcessOnPath1100" d="M12.0 3.8990363547948754L0.0 7.798072709589751V0.0Z" stroke="#323232" stroke-width="2.0" fill="#323232" transform="matrix(1.0,0.0,0.0,1.0,0.0,0.0)"/></marker><marker id="ProcessOnMarker1110" markerUnits="userSpaceOnUse" orient="auto" markerWidth="16.23606797749979" markerHeight="10.550836550532098" viewBox="-1.0 -1.3763819204711736 16.23606797749979 10.550836550532098" refX="-1.0" refY="3.8990363547948754"><path id="ProcessOnPath1111" d="M12.0 3.8990363547948754L0.0 7.798072709589751V0.0Z" stroke="#323232" stroke-width="2.0" fill="#323232" transform="matrix(1.0,0.0,0.0,1.0,0.0,0.0)"/></marker><marker id="ProcessOnMarker1117" markerUnits="userSpaceOnUse" orient="auto" markerWidth="16.23606797749979" markerHeight="10.550836550532098" viewBox="-1.0 -1.3763819204711736 16.23606797749979 10.550836550532098" refX="-1.0" refY="3.8990363547948754"><path id="ProcessOnPath1118" d="M12.0 3.8990363547948754L0.0 7.798072709589751V0.0Z" stroke="#323232" stroke-width="2.0" fill="#323232" transform="matrix(1.0,0.0,0.0,1.0,0.0,0.0)"/></marker><marker id="ProcessOnMarker1121" markerUnits="userSpaceOnUse" orient="auto" markerWidth="16.23606797749979" markerHeight="10.550836550532098" viewBox="-1.0 -1.3763819204711736 16.23606797749979 10.550836550532098" refX="-1.0" refY="3.8990363547948754"><path id="ProcessOnPath1122" d="M12.0 3.8990363547948754L0.0 7.798072709589751V0.0Z" stroke="#323232" stroke-width="2.0" fill="#323232" transform="matrix(1.0,0.0,0.0,1.0,0.0,0.0)"/></marker></defs><g id="ProcessOnG1002"><path id="ProcessOnPath1003" d="M11.93332417805891 168.26666514078778H1236.599990844726V1600.2666651407878H11.93332417805891V168.26666514078784Z" fill="none"/><g id="ProcessOnG1004"><g id="ProcessOnG1005" transform="matrix(1.0,0.0,0.0,1.0,512.0999908447267,188.26666514078778)" opacity="1.0"><path id="ProcessOnPath1006" d="M0.0 4.0Q0.0 0.0 4.0 0.0L172.0 0.0Q176.0 0.0 176.0 4.0L176.0 59.0Q176.0 63.0 172.0 63.0L4.0 63.0Q0.0 63.0 0.0 59.0Z" stroke="#323232" stroke-width="2.0" stroke-dasharray="none" opacity="1.0" fill="#ffffff"/><g id="ProcessOnG1007" transform="matrix(1.0,0.0,0.0,1.0,10.0,22.125)"><text id="ProcessOnText1008" fill="#000000" font-size="15" x="77.0" y="15.375" font-family="微软雅黑" font-weight="bold" font-style="normal" text-decoration="none" family="微软雅黑" text-anchor="middle" size="15">输入类的全限定名</text></g></g><g id="ProcessOnG1009" transform="matrix(1.0,0.0,0.0,1.0,396.59999084472656,306.2666651407877)" opacity="1.0"><path id="ProcessOnPath1010" d="M0.0 80.5L203.5 0.0L407.0 80.5L203.5 161.0Z" stroke="#323232" stroke-width="2.0" stroke-dasharray="none" opacity="1.0" fill="#ffffff"/><g id="ProcessOnG1011" transform="matrix(1.0,0.0,0.0,1.0,10.0,71.93)"><text id="ProcessOnText1012" fill="#000000" font-size="15" x="192.5" y="15.375" font-family="微软雅黑" font-weight="bold" font-style="normal" text-decoration="none" family="微软雅黑" text-anchor="middle" size="15">在当前类加载器的缓存中查找该类是否已经被加载？</text></g></g><g id="ProcessOnG1013"><path id="ProcessOnPath1014" d="M600.0999908447266 251.26666514078778L600.0999908447266 278.7666651407877L600.0999908447266 278.7666651407877L600.0999908447266 291.03059716328795" stroke="#323232" stroke-width="2.0" stroke-dasharray="none" fill="none" marker-end="url(#ProcessOnMarker1015)"/></g><g id="ProcessOnG1017" transform="matrix(1.0,0.0,0.0,1.0,61.93332417805891,355.2666651407877)" opacity="1.0"><path id="ProcessOnPath1018" d="M0.0 4.0Q0.0 0.0 4.0 0.0L231.0 0.0Q235.0 0.0 235.0 4.0L235.0 59.0Q235.0 63.0 231.0 63.0L4.0 63.0Q0.0 63.0 0.0 59.0Z" stroke="#323232" stroke-width="2.0" stroke-dasharray="none" opacity="1.0" fill="#ffffff"/><g id="ProcessOnG1019" transform="matrix(1.0,0.0,0.0,1.0,10.0,12.75)"><text id="ProcessOnText1020" fill="#000000" font-size="15" x="106.5" y="15.375" font-family="微软雅黑" font-weight="bold" font-style="normal" text-decoration="none" family="微软雅黑" text-anchor="middle" size="15">返回全限定名对应的</text><text id="ProcessOnText1021" fill="#000000" font-size="15" x="106.5" y="34.125" font-family="微软雅黑" font-weight="bold" font-style="normal" text-decoration="none" family="微软雅黑" text-anchor="middle" size="15">一个 java.lang.Class 对象</text></g></g><g id="ProcessOnG1022"><path id="ProcessOnPath1023" d="M396.59999084472656 386.7666651407877L346.76665751139274 386.7666651407877L346.76665751139274 386.7666651407877L312.1693921555587 386.7666651407877" stroke="#323232" stroke-width="2.0" stroke-dasharray="none" fill="none" marker-end="url(#ProcessOnMarker1024)"/><g id="ProcessOnG1026" transform="matrix(1.0,0.0,0.0,1.0,354.3846915001426,377.3916651407877)"><path id="ProcessOnPath1027" d="M0 0H30.0V18.75H0Z" fill="#fff" transform="matrix(1.0,0.0,0.0,1.0,-15.0,0.0)"/><text id="ProcessOnText1028" fill="#ff0000" font-size="15" x="0.0" y="15.375" font-family="微软雅黑" font-weight="bold" font-style="normal" text-decoration="none" family="微软雅黑" text-anchor="middle" size="15">找到</text></g></g><g id="ProcessOnG1029" transform="matrix(1.0,0.0,0.0,1.0,396.59999084472656,561.2666651407878)" opacity="1.0"><path id="ProcessOnPath1030" d="M0.0 80.5L203.5 0.0L407.0 80.5L203.5 161.0Z" stroke="#323232" stroke-width="2.0" stroke-dasharray="none" opacity="1.0" fill="#ffffff"/><g id="ProcessOnG1031" transform="matrix(1.0,0.0,0.0,1.0,10.0,71.93)"><text id="ProcessOnText1032" fill="#000000" font-size="15" x="192.5" y="15.375" font-family="微软雅黑" font-weight="bold" font-style="normal" text-decoration="none" family="微软雅黑" text-anchor="middle" size="15">判断该类加载器是否存在父类加载器？</text></g></g><g id="ProcessOnG1033"><path id="ProcessOnPath1034" d="M600.0999908447266 467.2666651407877L600.0999908447266 514.2666651407877L600.0999908447266 514.2666651407877L600.0999908447266 546.030597163288" stroke="#323232" stroke-width="2.0" stroke-dasharray="none" fill="none" marker-end="url(#ProcessOnMarker1035)"/><g id="ProcessOnG1037" transform="matrix(1.0,0.0,0.0,1.0,600.0999908447266,497.89863115203786)"><path id="ProcessOnPath1038" d="M0 0H42.0V17.5H0Z" fill="#fff" transform="matrix(1.0,0.0,0.0,1.0,-21.0,0.0)"/><text id="ProcessOnText1039" fill="#ff0000" font-size="14" x="0.0" y="14.350000000000001" font-family="微软雅黑" font-weight="bold" font-style="normal" text-decoration="none" family="微软雅黑" text-anchor="middle" size="14">未找到</text></g></g><g id="ProcessOnG1040" transform="matrix(1.0,0.0,0.0,1.0,791.5999908447262,860.2666651407878)" opacity="1.0"><path id="ProcessOnPath1041" d="M0.0 4.0Q0.0 0.0 4.0 0.0L231.0 0.0Q235.0 0.0 235.0 4.0L235.0 59.0Q235.0 63.0 231.0 63.0L4.0 63.0Q0.0 63.0 0.0 59.0Z" stroke="#323232" stroke-width="2.0" stroke-dasharray="none" opacity="1.0" fill="#ffffff"/><g id="ProcessOnG1042" transform="matrix(1.0,0.0,0.0,1.0,10.0,12.75)"><text id="ProcessOnText1043" fill="#000000" font-size="15" x="106.5" y="15.375" font-family="微软雅黑" font-weight="bold" font-style="normal" text-decoration="none" family="微软雅黑" text-anchor="middle" size="15">通过 BootStrap ClassLoader </text><text id="ProcessOnText1044" fill="#000000" font-size="15" x="106.5" y="34.125" font-family="微软雅黑" font-weight="bold" font-style="normal" text-decoration="none" family="微软雅黑" text-anchor="middle" size="15">加载</text></g></g><g id="ProcessOnG1045"><path id="ProcessOnPath1046" d="M803.5999908447262 641.7666651407878L909.0999908447262 641.7666651407878L909.0999908447262 845.030597163288" stroke="#323232" stroke-width="2.0" stroke-dasharray="none" fill="none" marker-end="url(#ProcessOnMarker1047)"/><g id="ProcessOnG1049" transform="matrix(1.0,0.0,0.0,1.0,909.0999908447262,681.898631152038)"><path id="ProcessOnPath1050" d="M0 0H42.0V17.5H0Z" fill="#fff" transform="matrix(1.0,0.0,0.0,1.0,-21.0,0.0)"/><text id="ProcessOnText1051" fill="#ff0000" font-size="14" x="0.0" y="14.350000000000001" font-family="微软雅黑" font-weight="bold" font-style="normal" text-decoration="none" family="微软雅黑" text-anchor="middle" size="14">不存在</text></g></g><g id="ProcessOnG1052" transform="matrix(1.0,0.0,0.0,1.0,189.59999084472662,860.2666651407878)" opacity="1.0"><path id="ProcessOnPath1053" d="M0.0 4.0Q0.0 0.0 4.0 0.0L231.0 0.0Q235.0 0.0 235.0 4.0L235.0 59.0Q235.0 63.0 231.0 63.0L4.0 63.0Q0.0 63.0 0.0 59.0Z" stroke="#323232" stroke-width="2.0" stroke-dasharray="none" opacity="1.0" fill="#ffffff"/><g id="ProcessOnG1054" transform="matrix(1.0,0.0,0.0,1.0,10.0,22.125)"><text id="ProcessOnText1055" fill="#000000" font-size="15" x="106.5" y="15.375" font-family="微软雅黑" font-weight="bold" font-style="normal" text-decoration="none" family="微软雅黑" text-anchor="middle" size="15">委托给父类加载器加载</text></g></g><g id="ProcessOnG1056"><path id="ProcessOnPath1057" d="M396.59999084472656 641.7666651407878L307.0999908447265 641.7666651407878L307.0999908447265 845.030597163288" stroke="#323232" stroke-width="2.0" stroke-dasharray="none" fill="none" marker-end="url(#ProcessOnMarker1058)"/><g id="ProcessOnG1060" transform="matrix(1.0,0.0,0.0,1.0,307.0999908447265,689.8986311520379)"><path id="ProcessOnPath1061" d="M0 0H28.0V17.5H0Z" fill="#fff" transform="matrix(1.0,0.0,0.0,1.0,-14.0,0.0)"/><text id="ProcessOnText1062" fill="#ff0000" font-size="14" x="0.0" y="14.350000000000001" font-family="微软雅黑" font-weight="bold" font-style="normal" text-decoration="none" family="微软雅黑" text-anchor="middle" size="14">存在</text></g></g><g id="ProcessOnG1063" transform="matrix(1.0,0.0,0.0,1.0,396.59999084472656,990.2666651407878)" opacity="1.0"><path id="ProcessOnPath1064" d="M0.0 80.5L203.5 0.0L407.0 80.5L203.5 161.0Z" stroke="#323232" stroke-width="2.0" stroke-dasharray="none" opacity="1.0" fill="#ffffff"/><g id="ProcessOnG1065" transform="matrix(1.0,0.0,0.0,1.0,10.0,71.93)"><text id="ProcessOnText1066" fill="#000000" font-size="15" x="192.5" y="15.375" font-family="微软雅黑" font-weight="bold" font-style="normal" text-decoration="none" family="微软雅黑" text-anchor="middle" size="15">判断父类加载器是否成功将指定的类加载进来？</text></g></g><g id="ProcessOnG1067"><path id="ProcessOnPath1068" d="M307.0999908447266 923.2666651407878L307.0999908447266 956.7666651407878L600.0999908447266 956.7666651407878L600.0999908447266 975.030597163288" stroke="#323232" stroke-width="2.0" stroke-dasharray="none" fill="none" marker-end="url(#ProcessOnMarker1069)"/></g><g id="ProcessOnG1071"><path id="ProcessOnPath1072" d="M909.0999908447262 923.2666651407878L909.0999908447262 956.7666651407878L600.0999908447266 956.7666651407878L600.0999908447266 975.030597163288" stroke="#323232" stroke-width="2.0" stroke-dasharray="none" fill="none" marker-end="url(#ProcessOnMarker1073)"/></g><g id="ProcessOnG1075" transform="matrix(1.0,0.0,0.0,1.0,396.59999084472656,1274.2666651407878)" opacity="1.0"><path id="ProcessOnPath1076" d="M0.0 80.5L203.5 0.0L407.0 80.5L203.5 161.0Z" stroke="#323232" stroke-width="2.0" stroke-dasharray="none" opacity="1.0" fill="#ffffff"/><g id="ProcessOnG1077" transform="matrix(1.0,0.0,0.0,1.0,10.0,71.93)"><text id="ProcessOnText1078" fill="#000000" font-size="15" x="192.5" y="15.375" font-family="微软雅黑" font-weight="bold" font-style="normal" text-decoration="none" family="微软雅黑" text-anchor="middle" size="15">是否需要解析该类的二进制字节流？</text></g></g><g id="ProcessOnG1079"><path id="ProcessOnPath1080" d="M600.0999908447266 1151.2666651407878L600.0999908447266 1212.7666651407878L600.0999908447266 1212.7666651407878L600.0999908447266 1259.0305971632881" stroke="#323232" stroke-width="2.0" stroke-dasharray="none" fill="none" marker-end="url(#ProcessOnMarker1081)"/><g id="ProcessOnG1083" transform="matrix(1.0,0.0,0.0,1.0,600.0999908447266,1196.398631152038)"><path id="ProcessOnPath1084" d="M0 0H56.0V17.5H0Z" fill="#fff" transform="matrix(1.0,0.0,0.0,1.0,-28.0,0.0)"/><text id="ProcessOnText1085" fill="#ff0000" font-size="14" x="0.0" y="14.350000000000001" font-family="微软雅黑" font-weight="bold" font-style="normal" text-decoration="none" family="微软雅黑" text-anchor="middle" size="14">成功加载</text></g></g><g id="ProcessOnG1086" transform="matrix(1.0,0.0,0.0,1.0,981.5999908447261,1039.2666651407878)" opacity="1.0"><path id="ProcessOnPath1087" d="M0.0 4.0Q0.0 0.0 4.0 0.0L231.0 0.0Q235.0 0.0 235.0 4.0L235.0 59.0Q235.0 63.0 231.0 63.0L4.0 63.0Q0.0 63.0 0.0 59.0Z" stroke="#323232" stroke-width="2.0" stroke-dasharray="none" opacity="1.0" fill="#ffffff"/><g id="ProcessOnG1088" transform="matrix(1.0,0.0,0.0,1.0,10.0,22.125)"><text id="ProcessOnText1089" fill="#000000" font-size="15" x="106.5" y="15.375" font-family="微软雅黑" font-weight="bold" font-style="normal" text-decoration="none" family="微软雅黑" text-anchor="middle" size="15">子类加载器自行加载</text></g></g><g id="ProcessOnG1090"><path id="ProcessOnPath1091" d="M803.5999908447266 1070.7666651407878L892.5999908447263 1070.7666651407878L892.5999908447263 1070.7666651407878L966.3639228672263 1070.7666651407878" stroke="#323232" stroke-width="2.0" stroke-dasharray="none" fill="none" marker-end="url(#ProcessOnMarker1092)"/><g id="ProcessOnG1094" transform="matrix(1.0,0.0,0.0,1.0,884.9819568559765,1062.0166651407878)"><path id="ProcessOnPath1095" d="M0 0H56.0V17.5H0Z" fill="#fff" transform="matrix(1.0,0.0,0.0,1.0,-28.0,0.0)"/><text id="ProcessOnText1096" fill="#ff0000" font-size="14" x="0.0" y="14.350000000000001" font-family="微软雅黑" font-weight="bold" font-style="normal" text-decoration="none" family="微软雅黑" text-anchor="middle" size="14">加载失败</text></g></g><g id="ProcessOnG1097"><path id="ProcessOnPath1098" d="M1099.099990844726 1102.2666651407878L1099.099990844726 1354.7666651407878L818.8360588222264 1354.7666651407878" stroke="#323232" stroke-width="2.0" stroke-dasharray="none" fill="none" marker-end="url(#ProcessOnMarker1099)"/><g id="ProcessOnG1101" transform="matrix(1.0,0.0,0.0,1.0,1085.2180248334762,1346.0166651407878)"><path id="ProcessOnPath1102" d="M0 0H56.0V17.5H0Z" fill="#fff" transform="matrix(1.0,0.0,0.0,1.0,-28.0,0.0)"/><text id="ProcessOnText1103" fill="#ff0000" font-size="14" x="0.0" y="14.350000000000001" font-family="微软雅黑" font-weight="bold" font-style="normal" text-decoration="none" family="微软雅黑" text-anchor="middle" size="14">成功加载</text></g></g><g id="ProcessOnG1104" transform="matrix(1.0,0.0,0.0,1.0,482.59999084472656,1517.2666651407878)" opacity="1.0"><path id="ProcessOnPath1105" d="M0.0 4.0Q0.0 0.0 4.0 0.0L231.0 0.0Q235.0 0.0 235.0 4.0L235.0 59.0Q235.0 63.0 231.0 63.0L4.0 63.0Q0.0 63.0 0.0 59.0Z" stroke="#323232" stroke-width="2.0" stroke-dasharray="none" opacity="1.0" fill="#ffffff"/><g id="ProcessOnG1106" transform="matrix(1.0,0.0,0.0,1.0,10.0,22.125)"><text id="ProcessOnText1107" fill="#000000" font-size="15" x="106.5" y="15.375" font-family="微软雅黑" font-weight="bold" font-style="normal" text-decoration="none" family="微软雅黑" text-anchor="middle" size="15">解析类</text></g></g><g id="ProcessOnG1108"><path id="ProcessOnPath1109" d="M600.0999908447266 1435.2666651407878L600.0999908447266 1476.2666651407878L600.0999908447266 1476.2666651407878L600.0999908447266 1502.0305971632881" stroke="#323232" stroke-width="2.0" stroke-dasharray="none" fill="none" marker-end="url(#ProcessOnMarker1110)"/><g id="ProcessOnG1112" transform="matrix(1.0,0.0,0.0,1.0,600.0999908447266,1459.898631152038)"><path id="ProcessOnPath1113" d="M0 0H14.0V17.5H0Z" fill="#fff" transform="matrix(1.0,0.0,0.0,1.0,-7.0,0.0)"/><text id="ProcessOnText1114" fill="#ff0000" font-size="14" x="0.0" y="14.350000000000001" font-family="微软雅黑" font-weight="bold" font-style="normal" text-decoration="none" family="微软雅黑" text-anchor="middle" size="14">是</text></g></g><g id="ProcessOnG1115"><path id="ProcessOnPath1116" d="M396.59999084472656 1354.7666651407878L31.93332417805891 1354.7666651407878L31.93332417805891 386.7666651407877L46.697256200559124 386.7666651407877" stroke="#323232" stroke-width="2.0" stroke-dasharray="none" fill="none" marker-end="url(#ProcessOnMarker1117)"/></g><g id="ProcessOnG1119"><path id="ProcessOnPath1120" d="M482.59999084472656 1548.7666651407878L31.93332417805891 1548.7666651407878L31.93332417805891 386.7666651407877L46.697256200559124 386.7666651407877" stroke="#323232" stroke-width="2.0" stroke-dasharray="none" fill="none" marker-end="url(#ProcessOnMarker1121)"/></g></g></g></svg>